<svg xmlns="http://www.w3.org/2000/svg" viewBox="0 0 48 56" fill="none">
  <!-- Shield outline -->
  <path d="M2 14 L24 8 L46 14 L46 40 L24 48 L2 40 Z" fill="white" stroke="#1a2332" stroke-width="1.5"/>

  <!-- Rocky ground -->
  <path d="M8 33 Q14 30 20 32 Q26 29 32 31 Q38 29 42 33 L44 37 L24 43 L4 37 Z" fill="#6b7b8d"/>

  <!-- Pine trees left -->
  <g fill="#2d5a3d">
    <path d="M12 32 L10.5 26 L9 32 Z"/>
    <path d="M12 28 L10.5 23 L9 28 Z"/>
    <path d="M16 31 L14.5 25 L13 31 Z"/>
    <path d="M16 27 L14.5 22 L13 27 Z"/>
  </g>

  <!-- Pine trees right -->
  <g fill="#2d5a3d">
    <path d="M37 31 L35.5 25 L34 31 Z"/>
    <path d="M37 27 L35.5 22 L34 27 Z"/>
    <path d="M41 32 L39.5 27 L38 32 Z"/>
  </g>

  <!-- Lighthouse body -->
  <path d="M21 32 L20 18 L28 18 L27 32 Z" fill="#d4dae0" stroke="#1a2332" stroke-width="1"/>

  <!-- Gallery -->
  <rect x="18.5" y="16" width="11" height="2.5" fill="#1a2332" rx="0.5"/>

  <!-- Lantern room -->
  <path d="M20 16 L20.5 12 L27.5 12 L28 16 Z" fill="#8faabe" stroke="#1a2332" stroke-width="0.8"/>
  <line x1="22.5" y1="12.5" x2="22.5" y2="15.5" stroke="#1a2332" stroke-width="0.6"/>
  <line x1="24" y1="12.5" x2="24" y2="15.5" stroke="#1a2332" stroke-width="0.6"/>
  <line x1="25.5" y1="12.5" x2="25.5" y2="15.5" stroke="#1a2332" stroke-width="0.6"/>

  <!-- Dome -->
  <path d="M21 12 Q24 8 27 12 Z" fill="#1a2332"/>
  <line x1="24" y1="8" x2="24" y2="5" stroke="#1a2332" stroke-width="1.2" stroke-linecap="round"/>
</svg>
